<?xml version="1.0" encoding="UTF-8"?>
<svg id="_레이어_1" data-name="레이어_1" xmlns="http://www.w3.org/2000/svg" version="1.1" viewBox="0 0 141.73 141.73">
  <!-- Generator: Adobe Illustrator 29.1.0, SVG Export Plug-In . SVG Version: 2.1.0 Build 142)  -->
  <defs>
    <style>
      .st0 {
        fill: #fff;
      }
    </style>
  </defs>
  <path class="st0" d="M117.05,59.75c.16.07,2.34,2.25,2.41,2.41.31.79,1.56,16.08,1.2,16.85-.05.1-.8-.06-1.2,0-1.31.18-.48-5.2-2.41,0-.82,2.2-1.9,11.27-4.81,7.23-3.96-5.5,3.42-7.54,3.64-8.02,4.3-9.51-2.05-4.39-3.09-6.37-.64-1.22-1.15-11.98-.55-12.09.78-.16,4.35-.19,4.81,0ZM118.24,70.58v-2.39h-1.17v2.39h1.17Z"/>
  <path d="M25.58,47.72c-3.71-6.69-15.05-32.78-6.49-38.38C33.2.1,107.56.81,122.79,8.89c9.75,5.17,6.6,24.74,2.01,32.74-6.81,11.86-14.53,5.68-16.17,7.29-.43.42-.3,11.52.01,12.03.55.92,3.33-1.19,3.6-1.2-.59.12-.09,10.88.55,12.09,1.04,1.98,7.4-3.15,3.09,6.37-.22.48-7.6,2.52-3.64,8.02,2.91,4.05,3.99-5.03,4.81-7.23-.62,2.85,2.73,8.11,2.41,8.41-1.32,1.21-6.52-3.26-4.82,6.02-4.92.95-.36-3.88-1.2-4.8-5.38-5.84-2.14,20.54-7.27,24.6-8.65,6.85-53.41,1.02-58.13,3.23-3.09,1.44-.38,9.91-7.39,15.49-1.8,1.44-16.31,7.2-18.18,7.15-15.21-.48.77-22.97-.46-30.56-.59-3.62-9.38-10.14-9.44-13.07-.08-4.08,7.41-11.08,11.82-11.66-1.44,3.05-3.92,2.48-4.8,4.8l7.83-3.59c1.77-1.86-2.31-1.31-3.03-1.21,2.62-5.55,7.8-27.67,6.09-32.93-.41-1.27-3.37-.44-4.89-3.18,1.84,1.9,14.54-4.7,15.14-6.02,1.84-3.99-11.49-20.71,4.11-18.04l3.61,18.04h16.85c-3.05-2.3-21.91-32.37-20.45-33.69,2.58-2.34,49.2-.91,55.64.31,27.81,5.25,7.97,17.26,6.94,14.7-.76-1.9-.48-7.68-1.22-10.19-1.81,9.66-6.61,2.62-12.59,2.37-3.11-.13-23.49.05-24.14,1.14-1.66,2.76-.1,23.45,2.78,25.35,1.27.84,28.6,2.41,30.37,1.95,7.6-2.01,5.86-24.4,10.2-19.98,2.7,2.75-7.06,26.81-8.67,31.03-.95,2.48-3.87,2.46-3.93,2.69-.32,1.13,12.79,2.42-3.62,3.61.83,2.73,14.17,1.26,7.13,7.1-1.87,1.55-41.94-1.48-42.03,3.12-.03,1.48,6.49,0,7.21.61.53.44-1.69,4.16-1.2,4.79.17.22,6.19.36,4.78,3.03-.17.32-7.3-.43-7.18,1.18.23,3.25,5.76.43,6,.61.57.43-1.59,3.28-1.19,3.59,1.2.95,27.35-1.44,30.68-1.2v2.39c6.05-9.86,6.54,5.66,5.33,8.89-.97,2.59-4.59,1.33-4.74,2.59-.14,1.18,7.19,4.31,4.22,11.41,5.74-7.63-1.09-59.42,1.82-62.57,1.2-1.31,11.31,6.51,17.05-7.61C138.15,5.33,105.73,5.39,81.6,4.36c-9.02-.39-56.3,2.02-61.79,6.28-3.46,2.69,3.14,34.36,5.78,37.08ZM56.27,20.04v1.2l.6-.6-.6-.6ZM59.88,26.06v1.2l.6-.6-.6-.6ZM62.29,28.46v1.2l.6-.6-.6-.6ZM58.67,29.7l.62,1.79.62.56v-1.17l-1.23-1.17ZM61.07,33.31c-.97,1.33,1.8,2.59,2.44,3.55,1-1.28-1.78-2.58-2.44-3.55ZM71.13,45.5c-2.51-3.91-19.48.34-23.88,1.03,4.38,4.89,7.4-1.43,7.81-1.21.45.24,6.78,7.32,6.62,7.81-.45,1.42-5.27,1.16-5.42,5.42-.09-9.14-13.92-2.99-12.62-1.21.53.73,6.99-1.57,1.21,2.4l4.79,3.63.03-4.81,1.27,3.55,19.16-7.16-4.79,5.99c7.98,5.43,7.03-13.56,5.83-15.44ZM95.4,59.75c.53-.28-1.31-2.94-1.17-3.03,2.63-1.74,9.26-2.59,9.57-10.2l-3.62,6.01c-4.88.95.84-3.59-3.2-4.64-18.53-4.78-9.35,15.87-1.58,11.86ZM54.46,48.93c-.18-.16-4.58-.44-4.8.59-.76,3.43,9.09,3.3,4.8-.59ZM78.53,53.75c-9.83,1.44,1.42,12.25,8.43,8.39l-8.42-2.41,3.6-1.2-6.01-2.41,2.39-2.38ZM39.42,54.94v1.2l.6-.6-.6-.6ZM38.22,58.55v1.2l.6-.6-.6-.6ZM43.63,58.56h-2.39v1.17h2.39v-1.17ZM33.99,63.36v-2.39h-1.17v2.39h1.17ZM71.92,62.16v1.2l.6-.6-.6-.6ZM53.25,76.59c.16-1.37,1.15-9.38-.58-9.61-1.56-.21-2.38,9.41.58,9.61ZM43.64,68.18c-5.52-5.15-7.4,6.05-2.99,7.21,3.27.86,3.59-6.66,2.99-7.21ZM60.48,69.39c-.11-.13-2.16-.51-2.41.61-.8,3.58,4.29,1.63,2.41-.61ZM64.09,76.61c-.31-.18-6.89-.18-7.21,0-5.41,3.16,12.62,3.16,7.21,0ZM43.63,85.02c.69-.81.21-8.03-2.98-7.21-4.54,1.16-.87,11.69,2.98,7.21ZM56.88,83.82c-7.08-5.3-7.17-13.51-7.21,6.01,5.13.9-.11-6.84,1.21-9.61,3.4,9.1,18.88,10.86,13.21,0-3.01,3.66,1.52,7.93-6.38,6.02-1.31-.32-.71-2.33-.82-2.42.85,3.22,6.23-2.87,4.81-3.6-3.13-1.61-5.73.08-4.81,3.6ZM68.91,88.64h17.45c.49,0,7.24-2.11,2.4-2.44l-19.85,2.44ZM101.39,91.04c.14-.22.12-3.43,0-3.6-1.56-2.14-1.41,5.74,0,3.6ZM48.45,92.23c.61-.68-2.61-3.34-3.61-2.38-.67.64,2.72,3.37,3.61,2.38ZM38.82,109.1c3.78-4.02,8.3-3.87,7.21-9.62-2.89,9.32-7.18-6.11-12.01-7.22-1.81,4.36,3.57,8.13,3.62,9.04.04.66-8.48,9.57-.01,9-6.03,6.52-13.61,13.06-16.86,21.67-5.72-3.96-3.92,5.06,2.74,4.62.75-.05,12.85-6.34,13.27-6.95,1.71-2.49,2.95-8.91,3.27-12.12l4.79,6.02c-3.14-11.32,10.79-17.79-6-14.44ZM55.66,97.06c-.49-.5-3.95,1.67-5.27,1.14s-8.92-9.55-1.95,5.35c2.79,5.97,11.34-.3,12.07-.46.97-.21,3.5,3.73,4.78,2.39.5-.53-3.67-11.25-7.21-8.41-.47.38,1.37,3.4,1.21,3.6-4.24,5.06-3.33-3.3-3.63-3.61ZM91.78,100.67c-.85-2.08,1.8-4.53-3.01-6.02-2.38-.74-22.23-.66-23.28,1.89-4.73,11.52,17.53,11.51,26.29,4.13.31.75-.21,2.54,0,3.6,6.44-6.42,8.85,4.08,9.61-.61.69-4.25-3.08-3.62-3.47-4.31-.33-.58,1.59-3.11,1.07-3.48-6.47-4.68-3.36,4.38-3.61,4.79-.19.31-3.22-.32-3.6.01ZM32.22,97.09l-1.79,1.79.56.56,1.23-1.17v-1.17ZM33.99,105.48c.16-.19.45-4.73-.58-4.81-3.19-.24-.68,6.3.58,4.81ZM25.57,110.29c.14-.22.12-3.43,0-3.6-1.56-2.14-1.41,5.74,0,3.6ZM23.78,112.71v1.2l.6-.6-.6-.6ZM23.16,118.72v-2.39h-1.17v2.39h1.17ZM18.38,128.35c2.7-.97,3.08-4.81,3.58-7.21-2.07.7-3.31,5.27-3.58,7.21Z"/>
  <path d="M37.62,110.3c.39-.42.82-.79,1.2-1.2-.35.07-.89,1.18-1.2,1.2Z"/>
  <path d="M119.46,79.01c.41-.06,1.15.1,1.2,0-.8.37-1.15-.03-1.2,0Z"/>
  <path d="M117.05,59.75c-.46-.19-4.03-.16-4.81,0,.91-.03.47-2.29,4.81,0Z"/>
  <path d="M119.46,62.16c-.06-.16-2.25-2.34-2.41-2.41,1.13.6,1.81,1.27,2.41,2.41Z"/>
  <path d="M119.46,79.01c-.48.26-2.36-.21-2.41,0,1.93-5.2,1.1.18,2.41,0Z"/>
  <path d="M120.66,79.01c.36-.76-.9-16.06-1.2-16.85,2.73,5.2,1.09,12.13,3.58,17.47-.65,1.21-1.87-.85-2.37-.62Z"/>
  <path d="M118.26,115.1c1.05,1.04,6.59-1.27,8.42-1.18-20.37,11.8-15.56-18.15-7.81-4.9.65,1.1-1.34,5.36-.61,6.08Z"/>
  <path d="M126.66,112.71c-.17.25-5.76-1.01-5.99-1.21-.58-.49,4.43-6.02,4.82-6,2.05.09,1.37,6.9,1.17,7.21Z"/>
  <path d="M126.66,94.64c-2.06-.61-4.93-12.29-1.78-12.02.7.06.98,10.21,1.78,12.02Z"/>
  <path d="M127.86,103.07c-2.43.12-.76-4.36-1.17-6,2.35-.26.82,4.06,1.17,6Z"/>
  <path d="M115.86,95.86c-1-.89,1.73-4.28,2.38-3.61.96,1-1.7,4.21-2.38,3.61Z"/>
  <path class="st0" d="M91.78,100.67c.39-.33,3.41.3,3.6-.01.26-.41-2.86-9.48,3.61-4.79.52.38-1.4,2.9-1.07,3.48.39.69,4.16.06,3.47,4.31-.76,4.7-3.17-5.81-9.61.61-.22-1.06.3-2.85,0-3.6-8.75,7.39-31.02,7.4-26.29-4.13,1.05-2.56,20.9-2.63,23.28-1.89,4.81,1.49,2.16,3.94,3.01,6.02Z"/>
  <path class="st0" d="M71.13,45.5c1.21,1.88,2.15,20.88-5.83,15.44l4.79-5.99-19.16,7.16-1.27-3.55-.03,4.81-4.79-3.63c5.78-3.98-.68-1.68-1.21-2.4-1.29-1.78,12.53-7.93,12.62,1.21.15-4.26,4.96-4,5.42-5.42.16-.49-6.17-7.57-6.62-7.81-.41-.22-3.43,6.1-7.81,1.21,4.4-.69,21.37-4.94,23.88-1.03ZM68.9,48.93c-2.26-3.41-4.15,3.42-3.6,3.59,2.17.66,4.52-2.2,3.6-3.59ZM53.25,59.75c.14-.22.12-3.43,0-3.6-1.56-2.14-1.41,5.74,0,3.6ZM61.09,56.14v1.2l.6-.6-.6-.6Z"/>
  <path class="st0" d="M95.4,59.75c-7.77,4.01-16.95-16.64,1.58-11.86,4.04,1.04-1.68,5.59,3.2,4.64l3.62-6.01c-.31,7.61-6.94,8.46-9.57,10.2-.14.09,1.71,2.75,1.17,3.03Z"/>
  <path class="st0" d="M55.66,97.06c.3.31-.61,8.67,3.63,3.61.16-.2-1.68-3.22-1.21-3.6,3.54-2.84,7.71,7.88,7.21,8.41-1.28,1.34-3.81-2.6-4.78-2.39-.73.16-9.28,6.43-12.07.46-6.97-14.9.57-5.9,1.95-5.35s4.79-1.64,5.27-1.14Z"/>
  <path class="st0" d="M37.62,110.3c-8.47.57.05-8.34.01-9-.05-.92-5.43-4.69-3.62-9.04,4.83,1.11,9.13,16.53,12.01,7.22,1.09,5.76-3.43,5.61-7.21,9.62-.39.41-.82.79-1.2,1.2Z"/>
  <path class="st0" d="M38.82,109.1c16.8-3.35,2.86,3.12,6,14.44l-4.79-6.02c-.32,3.21-1.56,9.63-3.27,12.12-.42.62-12.52,6.91-13.27,6.95-6.66.44-8.46-8.58-2.74-4.62,3.26-8.61,10.83-15.15,16.86-21.67.31-.02.85-1.13,1.2-1.2Z"/>
  <path class="st0" d="M78.53,53.75l-2.39,2.38,6.01,2.41-3.6,1.2,8.42,2.41c-7.01,3.86-18.26-6.95-8.43-8.39Z"/>
  <path class="st0" d="M43.64,68.18c.59.56.28,8.08-2.99,7.21-4.4-1.16-2.52-12.36,2.99-7.21Z"/>
  <path class="st0" d="M43.63,85.02c-3.85,4.48-7.52-6.05-2.98-7.21,3.18-.82,3.67,6.4,2.98,7.21Z"/>
  <path class="st0" d="M56.88,83.82c-.93-3.52,1.68-5.21,4.81-3.6,1.43.73-3.96,6.82-4.81,3.6.12.09-.49,2.1.82,2.42,7.9,1.91,3.37-2.36,6.38-6.02,5.67,10.86-9.81,9.1-13.21,0-1.32,2.77,3.92,10.51-1.21,9.61.04-19.52.13-11.31,7.21-6.01Z"/>
  <path class="st0" d="M68.91,88.64l19.85-2.44c4.84.33-1.91,2.44-2.4,2.44h-17.45Z"/>
  <path class="st0" d="M53.25,76.59c-2.96-.21-2.14-9.82-.58-9.61,1.73.23.74,8.25.58,9.61Z"/>
  <path class="st0" d="M64.09,76.61c5.41,3.16-12.62,3.16-7.21,0,.31-.18,6.89-.18,7.21,0Z"/>
  <path class="st0" d="M54.46,48.93c4.29,3.89-5.56,4.02-4.8.59.23-1.03,4.62-.75,4.8-.59Z"/>
  <path class="st0" d="M33.99,105.48c-1.26,1.49-3.77-5.04-.58-4.81,1.03.08.74,4.62.58,4.81Z"/>
  <path class="st0" d="M18.38,128.35c.27-1.94,1.52-6.51,3.58-7.21-.51,2.4-.88,6.24-3.58,7.21Z"/>
  <path class="st0" d="M60.48,69.39c1.89,2.24-3.21,4.18-2.41.61.25-1.11,2.3-.74,2.41-.61Z"/>
  <path class="st0" d="M48.45,92.23c-.89,1-4.28-1.73-3.61-2.38,1-.96,4.21,1.7,3.61,2.38Z"/>
  <path class="st0" d="M101.39,91.04c-1.41,2.15-1.56-5.73,0-3.6.12.16.14,3.38,0,3.6Z"/>
  <path class="st0" d="M25.57,110.29c-1.41,2.15-1.56-5.73,0-3.6.12.16.14,3.38,0,3.6Z"/>
  <rect class="st0" x="41.24" y="58.56" width="2.39" height="1.17"/>
  <rect class="st0" x="32.82" y="60.96" width="1.17" height="2.39"/>
  <rect class="st0" x="21.99" y="116.32" width="1.17" height="2.39"/>
  <polygon class="st0" points="56.27 20.04 56.88 20.64 56.27 21.24 56.27 20.04"/>
  <polygon class="st0" points="38.22 58.55 38.82 59.15 38.22 59.75 38.22 58.55"/>
  <polygon class="st0" points="32.22 97.09 32.22 98.26 30.99 99.44 30.43 98.88 32.22 97.09"/>
  <polygon class="st0" points="39.42 54.94 40.03 55.54 39.42 56.14 39.42 54.94"/>
  <polygon class="st0" points="59.88 26.06 60.49 26.66 59.88 27.26 59.88 26.06"/>
  <polygon class="st0" points="62.29 28.46 62.89 29.06 62.29 29.67 62.29 28.46"/>
  <polygon class="st0" points="58.67 29.7 59.9 30.87 59.9 32.04 59.28 31.49 58.67 29.7"/>
  <path class="st0" d="M61.07,33.31c.66.97,3.43,2.27,2.44,3.55-.63-.96-3.41-2.22-2.44-3.55Z"/>
  <polygon class="st0" points="71.92 62.16 72.52 62.76 71.92 63.36 71.92 62.16"/>
  <polygon class="st0" points="23.78 112.71 24.38 113.31 23.78 113.91 23.78 112.71"/>
  <path d="M43.65,21.24c-6.2,6.73-13.28-7.23-10.76-10.74,4.99-6.95,13.53,7.73,10.76,10.74Z"/>
  <path d="M98.79,72.09c6.58,4.87-5.58,1.02-4.6,5.71,5.33.68,11.28-2.85,9.6,4.81-6.56-10.25-7.82-.35-8.42,0-5.7,3.32-4.14-16.11,3.42-10.52Z"/>
  <path d="M92.99,33.26l13.2-4.21c-3.67,3.92-7.94,4.9-13.2,4.21Z"/>
  <path d="M73.72,33.26c-1.51,2.8-3.45-2.72-2.39-4.79,1.3-.36,2.52,4.56,2.39,4.79Z"/>
  <path d="M78.53,81.43c.36,2.21-3.01.93-4.8,1.17-.36-2.21,3.01-.93,4.8-1.17Z"/>
  <path d="M85.75,81.43c.36,2.21-3.01.93-4.8,1.17-.36-2.21,3.01-.93,4.8-1.17Z"/>
  <rect x="86.97" y="81.43" width="2.39" height="1.17"/>
  <rect x="120.67" y="38.11" width="2.39" height="1.17"/>
  <path d="M68.9,48.93c.92,1.39-1.43,4.25-3.6,3.59-.55-.17,1.34-7,3.6-3.59Z"/>
  <polygon points="61.09 56.14 61.69 56.74 61.09 57.35 61.09 56.14"/>
  <rect x="117.06" y="68.18" width="1.17" height="2.39"/>
  <path d="M53.25,59.75c-1.41,2.15-1.56-5.73,0-3.6.12.16.14,3.38,0,3.6Z"/>
</svg>